<svg xmlns="http://www.w3.org/2000/svg" id="logo" viewBox="0 0 124 14"><g fill="none"><path fill="currentColor" d="M27.63 9.01h3.89l-1.9-5.35h-.03zm4.07.5h-4.26l-1.37 3.67h2.48v.5H23.7v-.5h1.85L30.43 0h.3l4.7 13.18h1.8v.5h-6.39v-.5H33zM14.97.82v5.74h1.2q.65 0 1.09-.12t.8-.68q.35-.54.4-1.71h.52v5.67h-.52q-.08-1.63-.62-2.13-.55-.52-1.66-.52h-1.21v6.12h2.72q2.3 0 3.2-.97t1.07-3h.51l-.13 4.48H10.47v-.5h2.13V.82h-2.13V.3h11.38l.23 3.57h-.5q-.27-1.63-1.07-2.34-.81-.72-2.7-.72zM7.99.17l.06 3.48h-.47Q6.58.52 4.06.5q-1.4 0-2.17.77-.78.78-.78 1.6 0 .78.65 1.31.64.54 2.35.83 1.7.3 2.6.72.9.43 1.5 1.41.62 1 .62 2.27 0 1.96-1.28 3.27A4.3 4.3 0 0 1 4.37 14a5 5 0 0 1-3.09-1.15l-.93.84H0V9.95h.43a5.7 5.7 0 0 0 1.64 2.65 3.5 3.5 0 0 0 4.6.07 2.6 2.6 0 0 0 1.05-2.08q0-1.05-.72-1.78a4.3 4.3 0 0 0-2.35-1q-1.62-.28-2.49-.64A3.4 3.4 0 0 1 .68 5.91a3.5 3.5 0 0 1-.63-2q0-1.52 1.09-2.72Q2.2 0 4.06 0q1.55 0 2.89.98.36-.34.63-.82zM116.5.78v5.75h1.2q.63 0 1.08-.12.44-.12.8-.67.35-.55.4-1.73h.52V9.7h-.52q-.09-1.62-.62-2.14-.55-.51-1.66-.51h-1.2v6.13h2.71q2.33 0 3.21-.97.9-.98 1.07-3h.51l-.13 4.48h-11.88v-.5h2.13V.79h-2.13V.26h11.39l.23 3.58h-.51q-.26-1.62-1.06-2.35-.82-.72-2.7-.72zm-6.35 12.91H99.9v-.5l7.68-12.4h-3.15q-1.73 0-2.4.7a4.7 4.7 0 0 0-1 2.38h-.47l.21-3.6h9.6v.37l-7.8 12.54h3.27q1.41 0 2.12-.28.72-.27 1.25-1.37.55-1.08.68-2.24h.49zM90.96.8v5.74h1.2q.65 0 1.09-.12t.8-.67q.35-.55.4-1.73h.52V9.7h-.52q-.08-1.62-.62-2.14-.54-.51-1.67-.51h-1.2v6.13h2.72q2.33 0 3.21-.97.9-.98 1.07-3h.5l-.12 4.48H86.46v-.5h2.13V.79h-2.13V.26h11.39l.23 3.58h-.5Q97.3 2.23 96.5 1.5q-.82-.72-2.7-.72zM77.13.8v5.74h1.2q.65 0 1.09-.12t.8-.67q.35-.55.4-1.73h.52V9.7h-.52q-.08-1.62-.62-2.14-.55-.51-1.67-.51h-1.2v6.13h2.73q2.31 0 3.2-.97.9-.98 1.07-3h.51l-.13 4.48H72.64v-.5h2.13V.79h-2.13V.26h11.38l.23 3.58h-.5q-.27-1.62-1.07-2.35-.81-.72-2.7-.72zM62.27.8v5.55h1.8q1.15 0 1.76-.16.6-.15.97-.81.37-.65.37-2.09a3 3 0 0 0-.37-1.7 1.5 1.5 0 0 0-.9-.67q-.5-.14-1.36-.14zm-2.38 12.4V.78h-2.1V.26h7.34q1.43 0 2.36.25t1.6 1.04.66 1.8a2.5 2.5 0 0 1-.97 2.06q-.98.8-3.32 1.2v.04q1.68.34 2.76 1.29 1.07.94 1.07 3.22 0 1.3.3 1.67t.85.36q.34 0 .83-.14v.49q-.86.3-1.67.3-1.65 0-2.33-.92a3 3 0 0 1-.66-1.8l.04-1.7q0-.89-.56-1.75-.56-.87-2.57-.87h-1.24v6.38h2.1v.5h-6.59v-.5zM49.85 6.92h-1.82v6.25h1.88q1.05 0 1.67-.16.63-.17 1.07-.86.43-.69.43-2.19 0-1.58-.66-2.32t-2.57-.73m.23-6.14h-2.05V6.4h1.84q1.86 0 2.39-.73.52-.73.52-2.3a3.6 3.6 0 0 0-.35-1.79 1.4 1.4 0 0 0-.86-.68 7 7 0 0 0-1.5-.13m-4.43 12.4V.78h-2.07v-.5h6.92q1.14 0 1.92.1.78.14 1.5.6.71.48 1.04 1.19.3.7.3 1.34 0 2.4-3.65 3.13v.05q4.13.68 4.13 3.44 0 .68-.37 1.44t-1.18 1.3-1.66.69-2.12.13h-6.83v-.5z"/></g></svg>

